# xmcd
# 
# Track frame offsets:
#     150
#     10680
#     23085
#     45103
#     61464
#     75001
#     96206
#     121300
#     134834
# 
# Disc length: 1955
# 
# Revision: 1
# Processed by: cddbd v1.5.2PL0 Copyright (c) Steve Scherf et al.
# Submitted via: BonkEnc v1.0.15
# 
DISCID=6107a109
DTITLE=Oscar Peterson - Swinging On A Star
DYEAR=2000
DGENRE=Jazz
TTITLE0=Mas que nada
TTITLE1=Poor butterfly
TTITLE2=Swinging on a star
TTITLE3=52nd street theme
TTITLE4=Sweet Georgia Brown
TTITLE5=Flamingo
TTITLE6=Falling in with love
TTITLE7=The honney dripper
TTITLE8=China boy
EXTD=
EXTT0=
EXTT1=
EXTT2=
EXTT3=
EXTT4=
EXTT5=
EXTT6=
EXTT7=
EXTT8=
PLAYORDER=
